<svg width="130" height="176" viewBox="0 0 130 176" fill="none" xmlns="http://www.w3.org/2000/svg">
<g id="logo_1 1">
<path id="Vector" d="M32.9454 153.276V156.261H23.7512V157.739H28.4304C28.9776 157.739 29.4246 157.931 29.7712 158.314C30.1177 158.679 30.2911 159.135 30.2911 159.683C30.2911 159.719 30.2911 159.756 30.2911 159.792C30.2911 159.81 30.2911 159.829 30.2911 159.847L29.9627 166.336H26.2413V161.599C26.2413 161.344 26.1773 161.152 26.0497 161.024C25.9221 160.878 25.7305 160.805 25.4751 160.805H13.353V157.739H19.8108V156.261H11.0544V153.276H32.9454ZM26.0224 141.887H29.9627V149.936C29.2513 150.374 28.3848 150.767 27.3632 151.114C26.3415 151.46 25.3201 151.634 24.2984 151.634H17.4575C16.9285 151.634 16.436 151.606 15.9799 151.552C15.5238 151.479 15.1316 151.333 14.8033 151.114C14.4567 150.895 14.1921 150.593 14.0097 150.21C13.8273 149.827 13.7361 149.316 13.7361 148.677V141.887H17.6764V144.132H26.0224V141.887ZM23.3681 148.759C23.8424 148.759 24.2984 148.722 24.7363 148.65C25.1741 148.558 25.6027 148.412 26.0224 148.211V146.925H17.6764V148.02C17.6764 148.33 17.7312 148.531 17.8406 148.622C17.9683 148.713 18.1964 148.759 18.5247 148.759H23.3681Z" fill="#727272"/>
<path id="Vector_2" d="M51.3066 149.17C51.3066 150.813 50.8596 152.191 49.9657 153.304C49.0901 154.417 47.9135 155.147 46.4358 155.494V158.889C47.8587 158.834 49.1267 158.679 50.2394 158.424C51.3705 158.168 52.3008 157.803 53.0305 157.329V142.49H56.9982V150.539H60.446V153.715H56.9982V164.584H53.0305V160.367C52.2277 160.86 51.2518 161.244 50.1026 161.517C48.9715 161.773 47.4848 161.901 45.6423 161.901H36.6396V158.889H42.5228V155.576C40.9357 155.248 39.6678 154.527 38.7193 153.413C37.7889 152.282 37.3237 150.867 37.3237 149.17C37.3237 148.184 37.4879 147.29 37.8163 146.487C38.1628 145.684 38.6464 144.99 39.2666 144.406C39.8686 143.84 40.5982 143.402 41.4556 143.092C42.3313 142.764 43.289 142.599 44.3288 142.599C45.3686 142.599 46.3082 142.764 47.1473 143.092C48.0047 143.402 48.7436 143.84 49.3637 144.406C49.9839 144.99 50.4583 145.684 50.7866 146.487C51.1332 147.29 51.3066 148.184 51.3066 149.17ZM47.4483 149.17C47.4483 148.166 47.1565 147.336 46.5726 146.679C45.9888 146.021 45.241 145.693 44.3288 145.693C43.3985 145.693 42.6415 146.021 42.0576 146.679C41.4738 147.336 41.182 148.166 41.182 149.17C41.182 150.265 41.4738 151.123 42.0576 151.743C42.6415 152.346 43.3985 152.647 44.3288 152.647C45.241 152.647 45.9888 152.346 46.5726 151.743C47.1565 151.123 47.4483 150.265 47.4483 149.17ZM83.5409 164.584H79.5458V142.49H83.5409V164.584ZM76.7821 151.059C76.7821 152.191 76.6087 153.222 76.2622 154.153C75.9338 155.065 75.4686 155.85 74.8666 156.507C74.2465 157.164 73.4893 157.675 72.5955 158.04C71.7198 158.387 70.7256 158.561 69.6128 158.561C68.4817 158.561 67.4785 158.387 66.6028 158.04C65.7272 157.675 64.9792 157.164 64.359 156.507C63.7388 155.85 63.2645 155.065 62.9361 154.153C62.6259 153.222 62.4709 152.191 62.4709 151.059C62.4709 149.946 62.6351 148.933 62.9635 148.02C63.2918 147.089 63.757 146.286 64.359 145.611C64.9792 144.954 65.7272 144.443 66.6028 144.078C67.4966 143.713 68.5001 143.53 69.6128 143.53C70.7256 143.53 71.7198 143.713 72.5955 144.078C73.4893 144.443 74.2465 144.954 74.8666 145.611C75.4686 146.286 75.9338 147.089 76.2622 148.02C76.6087 148.933 76.7821 149.946 76.7821 151.059ZM72.8691 151.059C72.8691 149.891 72.5955 148.869 72.0482 147.993C71.5009 147.117 70.6892 146.679 69.6128 146.679C68.5183 146.679 67.7066 147.117 67.1775 147.993C66.6484 148.869 66.3839 149.891 66.3839 151.059C66.3839 152.227 66.6484 153.249 67.1775 154.125C67.7066 154.983 68.5183 155.412 69.6128 155.412C70.6892 155.412 71.5009 154.983 72.0482 154.125C72.5955 153.249 72.8691 152.227 72.8691 151.059ZM91.6953 146.131V143.037H104.802C105.35 143.037 105.824 143.22 106.225 143.585C106.645 143.932 106.855 144.388 106.855 144.954C106.855 145.355 106.754 145.784 106.554 146.241C106.353 146.679 106.098 147.126 105.788 147.582C105.459 148.02 105.094 148.458 104.693 148.896C104.31 149.316 103.918 149.699 103.516 150.046C103.972 150.064 104.365 150.156 104.693 150.32C105.021 150.466 105.35 150.648 105.678 150.867C106.006 151.141 106.317 151.397 106.608 151.634C106.9 151.853 107.201 152.081 107.511 152.318C107.803 152.574 108.095 152.829 108.387 153.085C108.697 153.341 109.026 153.623 109.372 153.934L107.046 156.48C106.627 156.097 106.271 155.768 105.979 155.494C105.705 155.22 105.45 154.974 105.213 154.755C104.976 154.536 104.739 154.335 104.501 154.153C104.283 153.952 104.027 153.733 103.735 153.496C103.535 153.35 103.325 153.194 103.106 153.03C102.905 152.866 102.686 152.72 102.449 152.592C102.212 152.464 101.966 152.355 101.71 152.264C101.455 152.172 101.181 152.109 100.889 152.072C99.4118 153.058 97.8613 153.924 96.2376 154.673C94.6324 155.403 93.1637 155.969 91.8321 156.37L90.6828 153.331C91.6679 153.039 92.7169 152.647 93.8296 152.154C94.9607 151.643 96.0461 151.068 97.0859 150.429C98.1439 149.809 99.1108 149.133 99.9865 148.403C100.862 147.673 101.564 146.916 102.093 146.131H91.6953ZM110.932 159.108V162.174H89.041V159.108H110.932Z" fill="#FFC700"/>
<path id="Vector_3" d="M12.6341 112.395C12.6341 112.395 16.3125 126.141 39.3586 122.623L43.2677 113.428L36.6399 106.437L18.2964 100.561L12.6301 112.395" fill="#0071C2"/>
<path id="Vector_4" d="M86.0446 86.6429C86.0446 91.5083 83.4685 92.7911 76.9521 95.4565L21.3198 118.254C16.2967 118.252 12.2273 114.308 12.2273 109.437V33.5769C12.2273 28.7017 15.1826 27.0805 21.3198 24.7534L76.9501 1.95557C81.9772 1.95557 86.0427 5.91166 86.0427 10.779L86.0446 86.6429Z" fill="#0085E6"/>
<path id="Vector_5" d="M17.2815 117.323C17.2815 117.323 38.1306 123.127 39.3561 122.625C40.5659 122.128 38.5762 113.854 38.5762 113.854L31.0356 105.973L24.007 105.656L22.7737 107.356L17.2815 117.323Z" fill="#0071C2"/>
<path id="Vector_6" d="M75.6466 7.20996L13.926 32.3701L16.8207 48.4898L26.005 49.3854L56.6719 44.5963L75.7326 34.9006L89.7662 16.2564C86.6976 10.9216 82.1943 7.61672 75.6466 7.20996Z" fill="#F4F5F5"/>
<path id="Vector_7" d="M30.2731 37.948C30.2731 36.5342 30.535 35.4078 31.0374 34.4476C24.7222 33.8727 18.755 32.1009 14.4042 28.2974C12.9558 29.588 12.2444 31.1877 12.2444 33.5754V109.433C12.2444 114.303 16.3255 118.251 21.3409 118.251L30.3181 114.576C30.3161 114.316 30.2751 114.068 30.2751 113.806L30.2731 37.948Z" fill="#0071C2"/>
<path id="Vector_8" d="M105.692 94.1155C105.692 98.9868 103.108 100.266 96.6014 102.935L39.3528 122.627C34.3296 122.627 30.2524 118.679 30.2524 113.808V37.948C30.2524 33.0787 33.2077 31.4595 39.3528 29.1206L96.6014 9.43408C101.619 9.43408 105.692 13.3843 105.692 18.2575V94.1155Z" fill="#38ACFF"/>
<path id="Vector_9" d="M81.9864 32.5857C82.0439 32.7333 82.071 32.8909 82.0665 33.0495C82.0618 33.2079 82.0255 33.3638 81.9594 33.5079C81.8936 33.652 81.7993 33.7813 81.6823 33.8883C81.5654 33.9952 81.4282 34.0776 81.2789 34.1306L50.8368 45.5295C50.5344 45.6427 50.2002 45.6347 49.9037 45.5072C49.6072 45.3797 49.3715 45.1423 49.2458 44.8451C49.188 44.6976 49.1602 44.54 49.1645 44.3816C49.1686 44.2234 49.2046 44.0673 49.2702 43.9232C49.3359 43.7791 49.4299 43.6496 49.5466 43.5427C49.6633 43.4355 49.8001 43.3532 49.9494 43.3002L80.3954 31.9032C80.6978 31.789 81.0326 31.7966 81.3295 31.9247C81.6262 32.0528 81.8617 32.2912 81.9864 32.5896M81.9864 38.0104C82.0439 38.158 82.071 38.3156 82.0665 38.4742C82.0618 38.6326 82.0255 38.7885 81.9594 38.9326C81.8936 39.0768 81.7993 39.206 81.6823 39.313C81.5654 39.42 81.4282 39.5023 81.2789 39.5553L50.8368 50.9347C50.5346 51.0504 50.1994 51.0438 49.9021 50.9159C49.6051 50.788 49.3695 50.5492 49.2458 50.25C49.1893 50.1031 49.1629 49.9465 49.168 49.7893C49.1729 49.6321 49.2093 49.4774 49.2747 49.3344C49.3404 49.1915 49.4338 49.063 49.5495 48.9566C49.6654 48.8502 49.8013 48.7681 49.9494 48.7149L80.3954 37.3162C80.6974 37.2008 81.0326 37.2076 81.3295 37.3355C81.6266 37.4632 81.8623 37.7018 81.9864 38.0004M71.639 47.5124C71.8834 48.1304 71.7348 48.7581 71.3009 48.9204L50.5104 56.7016C50.0765 56.858 49.5292 56.4923 49.281 55.8803C49.0386 55.2662 49.193 54.6326 49.6269 54.4683L70.4174 46.6911C70.8435 46.5347 71.3928 46.8984 71.639 47.5124Z" fill="white"/>
<g id="Clip path group">
<mask id="mask0_990_2089" style="mask-type:luminance" maskUnits="userSpaceOnUse" x="15" y="54" width="92" height="91">
<g id="clip0_358_2144">
<path id="Vector_10" d="M106.189 73.3419L34.8794 54.2246L15.7719 125.571L87.0819 144.689L106.189 73.3419Z" fill="white"/>
</g>
</mask>
<g mask="url(#mask0_990_2089)">
<g id="Group">
<path id="Vector_11" d="M85.273 95.2044C88.5494 82.9708 81.6076 70.4807 69.7685 67.3068C57.9295 64.1328 45.6758 71.4772 42.3996 83.7106C40.9181 89.2429 41.5261 94.8272 43.7317 99.579L46.143 109.34C46.76 111.937 46.8224 113.524 48.8746 114.074L64.1635 118.173C66.216 118.723 67.2329 117.342 68.8949 115.44L76.1894 108.281C80.474 105.269 83.7914 100.737 85.273 95.2044Z" fill="#FFE46A"/>
<path id="Vector_12" d="M43.004 86.7641C46.3896 74.122 58.7113 66.2268 71.5231 67.8666C70.9211 67.646 70.3095 67.4522 69.6905 67.2858C57.8513 64.1119 45.5978 71.4562 42.3214 83.6897C41.2433 87.7155 41.2728 91.7685 42.2182 95.5085C41.9778 92.6438 42.2192 89.6943 43.004 86.7641Z" fill="#FFF0B7"/>
<path id="Vector_13" d="M85.2604 95.2527C86.4339 90.8709 86.2961 86.4564 85.0923 82.4487C85.0663 84.366 84.8023 86.2726 84.3062 88.1249C80.408 102.68 63.1471 110.758 45.4219 106.521L46.1302 109.388C46.7473 111.985 46.8096 113.572 48.8619 114.122L64.1509 118.221C66.2032 118.771 67.2201 117.391 68.8823 115.488L76.1768 108.329C80.4616 105.317 83.7789 100.785 85.2604 95.2527Z" fill="#FFDA00"/>
<path id="Vector_14" d="M71.8312 95.6752C71.8568 95.6624 71.8818 95.6513 71.9082 95.6368C72.3958 95.3691 72.8741 94.862 72.7539 94.2406C72.2602 91.6921 69.0964 90.0776 66.4517 90.1685C66.3178 90.1732 66.1866 90.182 66.0582 90.1953C64.9347 89.0603 63.3312 88.43 61.7344 88.503C61.5454 88.5116 61.3569 88.5305 61.1701 88.5601C60.4905 87.8729 59.6109 87.3854 58.6475 87.2244C56.631 86.8877 54.4961 88.0248 53.6373 89.8767L53.4567 89.9311C54.2162 92.4559 56.0799 99.6062 55.5906 102.337C54.9734 105.782 52.24 114.85 52.2124 114.941L53.8687 115.442C53.9824 115.065 56.6588 106.186 57.2936 102.642C57.5768 101.063 57.2913 98.3466 56.4454 94.5708C56.0505 92.8083 55.6286 91.2407 55.3678 90.3126C55.9817 89.3352 57.2231 88.7417 58.3626 88.9322C58.7097 88.9901 59.0428 89.1199 59.3453 89.3045C59.1794 89.4297 59.0258 89.5703 58.8864 89.7248C58.0266 90.6795 57.8904 92.1309 58.5694 93.1012C58.9714 93.6758 59.6823 94.0382 60.4248 94.0468C61.1165 94.0546 61.7306 93.7632 62.11 93.2471C62.4509 92.7831 62.594 92.1804 62.5349 91.4558C62.5002 91.0387 62.4065 90.6286 62.2566 90.2379C62.92 90.2856 63.5613 90.4957 64.1244 90.8496C63.8118 91.0608 63.547 91.3182 63.3379 91.618C62.8907 92.26 62.7781 93.1351 63.0439 93.9022C63.273 94.5634 63.7599 95.0506 64.3798 95.2389C64.4006 95.2451 64.4215 95.2512 64.4422 95.2569C64.9902 95.4037 65.5737 95.3073 66.0924 94.9827C66.7016 94.6014 67.1313 93.9603 67.2419 93.2681C67.312 92.8279 67.272 92.3681 67.1309 91.914C68.9181 92.0611 70.4307 93.084 70.9178 94.1518C70.2884 94.7598 68.9877 96.0404 67.5904 97.5589C64.9707 100.406 63.3662 102.615 62.8219 104.125C61.6009 107.511 59.4816 116.54 59.3916 116.922L61.0763 117.317C61.0982 117.225 63.2622 108.005 64.4494 104.712C65.2963 102.363 69.5834 97.8673 71.8312 95.6752ZM60.7157 92.2216C60.6502 92.311 60.4917 92.3161 60.4448 92.3157C60.2587 92.3134 60.0703 92.2281 59.9864 92.1084C59.7689 91.7975 59.8537 91.2366 60.1715 90.8837C60.2751 90.7704 60.3943 90.6725 60.5257 90.5929C60.6816 90.9077 60.7819 91.248 60.8103 91.5964C60.8333 91.8804 60.7989 92.1084 60.7157 92.2216ZM65.1747 93.5147C65.1118 93.5538 64.9893 93.6132 64.8822 93.5819C64.7674 93.5473 64.7053 93.4124 64.6785 93.3349C64.5948 93.0934 64.6273 92.7944 64.7573 92.6079C64.9072 92.3928 65.1255 92.2424 65.3614 92.1374C65.5119 92.4393 65.5741 92.7371 65.533 92.9949C65.5019 93.1914 65.3577 93.4001 65.1747 93.5147Z" fill="#FAAF63"/>
<path id="Vector_15" d="M63.8527 122.137L47.4132 117.73C46.494 117.483 45.5404 118.034 45.2939 118.954L45.0344 119.923C44.7881 120.843 45.3387 121.797 46.2579 122.044L51.5674 123.467C49.8265 123.632 47.7795 124.585 47.3444 126.21L47.1697 126.862C48.0576 128.632 48.5756 131.433 50.8296 132.037L53.8783 132.855C55.6538 133.331 57.4287 131.751 59.4996 130.168L59.6743 129.516C60.1094 127.89 58.8899 126.062 57.5022 125.058L62.6974 126.451C63.6166 126.697 64.5702 126.146 64.8167 125.227L65.0763 124.257C65.3225 123.338 64.7719 122.383 63.8527 122.137Z" fill="#6B83A5"/>
<path id="Vector_16" d="M65.033 122.454L46.233 117.414C45.3138 117.167 44.7632 116.213 45.0095 115.293L45.2692 114.324C45.5155 113.404 46.4691 112.853 47.3883 113.1L66.1883 118.14C67.1075 118.386 67.6581 119.34 67.4119 120.26L67.1521 121.229C66.9058 122.149 65.9522 122.7 65.033 122.454ZM62.1944 129.148L62.454 128.178C62.7002 127.258 62.1496 126.304 61.2304 126.058L47.7249 122.437C46.8057 122.191 45.8521 122.742 45.6058 123.661L45.346 124.631C45.0998 125.551 45.6503 126.505 46.5696 126.751L60.0751 130.372C60.9945 130.618 61.9479 130.067 62.1944 129.148Z" fill="#ABBDDB"/>
</g>
</g>
</g>
<path id="Vector_17" d="M75.0027 38.1321L69.5391 58.937L73.3198 59.9309L78.7835 39.126L75.0027 38.1321Z" fill="#FFE46A"/>
<path id="Vector_18" d="M45.0413 41.5515L50.606 62.3296L54.3819 61.3173L48.8172 40.5392L45.0413 41.5515Z" fill="#FFE46A"/>
<path id="Vector_19" d="M86.7074 69.9836L101.91 54.7729L104.674 57.5385L89.4715 72.7492L86.7074 69.9836Z" fill="#FFE46A"/>
</g>
</svg>
