<svg width="82" height="22" viewBox="0 0 82 22" fill="none" xmlns="http://www.w3.org/2000/svg">
<g id="logo_text_1 1">
<path id="Vector" d="M18.2924 10.0255V12.4235H10.8746V13.6115H14.6497C15.0912 13.6115 15.4518 13.7655 15.7315 14.0735C16.0111 14.3669 16.1509 14.7335 16.1509 15.1735C16.1509 15.2029 16.1509 15.2322 16.1509 15.2615C16.1509 15.2762 16.1509 15.2909 16.1509 15.3055L15.886 20.5195H12.8836V16.7135C12.8836 16.5082 12.832 16.3542 12.729 16.2515C12.626 16.1342 12.4715 16.0755 12.2654 16.0755H2.48532V13.6115H7.69548V12.4235H0.630859V10.0255H9.46163H18.2924ZM12.7069 0.873535H15.886V7.34154C15.312 7.69354 14.6129 8.00888 13.7887 8.28754C12.9645 8.5662 12.1403 8.70554 11.3161 8.70554H5.79686C5.37003 8.70554 4.97265 8.68354 4.60471 8.63954C4.23676 8.58088 3.92032 8.46354 3.6554 8.28754C3.37576 8.11154 3.16234 7.86954 3.01517 7.56154C2.86799 7.25354 2.7944 6.84288 2.7944 6.32954V0.873535H5.97348V2.67754H12.7069V0.873535ZM10.5655 6.39554C10.9481 6.39554 11.3161 6.3662 11.6693 6.30754C12.0226 6.2342 12.3684 6.11688 12.7069 5.95554V4.92154H5.97348V5.80154C5.97348 6.05088 6.01763 6.2122 6.10594 6.28554C6.20896 6.35888 6.39294 6.39554 6.65786 6.39554H10.5655Z" fill="white"/>
<path id="Vector_2" d="M33.1057 6.72591C33.1057 8.04591 32.7451 9.15325 32.0239 10.0479C31.3175 10.9426 30.3682 11.5293 29.176 11.8079V14.5359C30.324 14.4919 31.3469 14.3673 32.2447 14.1619C33.1573 13.9566 33.9079 13.6633 34.4965 13.2819V1.35791H37.6977V7.82591H40.4794V10.3779H37.6977V19.1119H34.4965V15.7239C33.8489 16.1199 33.0615 16.4279 32.1343 16.6479C31.2217 16.8533 30.0223 16.9559 28.5358 16.9559H21.2725V14.5359H26.019V11.8739C24.7385 11.6099 23.7156 11.0306 22.9503 10.1359C22.1997 9.22657 21.8244 8.08991 21.8244 6.72591C21.8244 5.93391 21.9568 5.21525 22.2218 4.56991C22.5014 3.92457 22.8915 3.36725 23.3918 2.89791C23.8775 2.44325 24.4662 2.09125 25.158 1.84191C25.8645 1.57791 26.6372 1.44591 27.4761 1.44591C28.315 1.44591 29.073 1.57791 29.75 1.84191C30.4418 2.09125 31.0379 2.44325 31.5382 2.89791C32.0386 3.36725 32.4213 3.92457 32.6862 4.56991C32.9658 5.21525 33.1057 5.93391 33.1057 6.72591ZM29.9928 6.72591C29.9928 5.91925 29.7574 5.25191 29.2864 4.72391C28.8154 4.19591 28.212 3.93191 27.4761 3.93191C26.7255 3.93191 26.1147 4.19591 25.6437 4.72391C25.1727 5.25191 24.9372 5.91925 24.9372 6.72591C24.9372 7.60591 25.1727 8.29525 25.6437 8.79391C26.1147 9.27791 26.7255 9.51991 27.4761 9.51991C28.212 9.51991 28.8154 9.27791 29.2864 8.79391C29.7574 8.29525 29.9928 7.60591 29.9928 6.72591ZM59.1123 19.1119H55.8891V1.35791H59.1123V19.1119ZM53.6593 8.24391C53.6593 9.15325 53.5194 9.98191 53.2398 10.7299C52.9749 11.4633 52.5996 12.0939 52.1139 12.6219C51.6136 13.1499 51.0027 13.5606 50.2815 13.8539C49.5751 14.1326 48.7729 14.2719 47.8752 14.2719C46.9626 14.2719 46.1532 14.1326 45.4467 13.8539C44.7402 13.5606 44.1367 13.1499 43.6364 12.6219C43.136 12.0939 42.7533 11.4633 42.4884 10.7299C42.2381 9.98191 42.1131 9.15325 42.1131 8.24391C42.1131 7.34925 42.2455 6.53525 42.5105 5.80191C42.7754 5.05391 43.1507 4.40857 43.6364 3.86591C44.1367 3.33791 44.7402 2.92725 45.4467 2.63391C46.1678 2.34057 46.9774 2.19391 47.8752 2.19391C48.7729 2.19391 49.5751 2.34057 50.2815 2.63391C51.0027 2.92725 51.6136 3.33791 52.1139 3.86591C52.5996 4.40857 52.9749 5.05391 53.2398 5.80191C53.5194 6.53525 53.6593 7.34925 53.6593 8.24391ZM50.5023 8.24391C50.5023 7.30525 50.2815 6.48391 49.84 5.77991C49.3985 5.07591 48.7436 4.72391 47.8752 4.72391C46.9921 4.72391 46.3372 5.07591 45.9103 5.77991C45.4834 6.48391 45.2701 7.30525 45.2701 8.24391C45.2701 9.18257 45.4834 10.0039 45.9103 10.7079C46.3372 11.3973 46.9921 11.7419 47.8752 11.7419C48.7436 11.7419 49.3985 11.3973 49.84 10.7079C50.2815 10.0039 50.5023 9.18257 50.5023 8.24391ZM65.6912 4.28391V1.79791H76.2661C76.7076 1.79791 77.0903 1.94457 77.4141 2.23791C77.7526 2.51657 77.9219 2.88325 77.9219 3.33791C77.9219 3.66057 77.8409 4.00525 77.679 4.37191C77.517 4.72391 77.3111 5.08325 77.0608 5.44991C76.7959 5.80191 76.5015 6.15391 76.1778 6.50591C75.8687 6.84325 75.5522 7.15125 75.2285 7.42991C75.5964 7.44457 75.9128 7.51791 76.1778 7.64991C76.4427 7.76725 76.7076 7.91391 76.9725 8.08991C77.2375 8.30991 77.4877 8.51525 77.7231 8.70591C77.9586 8.88191 78.2014 9.06525 78.4517 9.25591C78.6871 9.46125 78.9227 9.66657 79.1582 9.87191C79.4084 10.0773 79.6733 10.3046 79.9529 10.5539L78.0764 12.5999C77.7378 12.2919 77.4508 12.0279 77.2154 11.8079C76.9946 11.5879 76.7885 11.3899 76.5972 11.2139C76.406 11.0379 76.2145 10.8766 76.0232 10.7299C75.8466 10.5686 75.6405 10.3926 75.4051 10.2019C75.2431 10.0846 75.0739 9.95991 74.8973 9.82791C74.7354 9.69591 74.5587 9.57857 74.3675 9.47591C74.1762 9.37325 73.9775 9.28525 73.7714 9.21191C73.5653 9.13857 73.3445 9.08725 73.1091 9.05791C71.9169 9.84991 70.666 10.5466 69.356 11.1479C68.0609 11.7346 66.876 12.1893 65.8016 12.5119L64.8744 10.0699C65.6692 9.83525 66.5155 9.51991 67.4132 9.12391C68.3258 8.71325 69.2015 8.25125 70.0404 7.73791C70.894 7.23925 71.6741 6.69657 72.3805 6.10991C73.087 5.52325 73.6536 4.91457 74.0805 4.28391H65.6912ZM81.2113 14.7119V17.1759H63.5498V14.7119H81.2113Z" fill="white"/>
</g>
</svg>
