<svg width="20" height="20" viewBox="0 0 20 20" fill="none" xmlns="http://www.w3.org/2000/svg">
<g id="location_2_line" clip-path="url(#clip0_1148_8927)">
<g id="Group">
<path id="Vector" d="M5.59967 13.8665C5.81185 13.8046 6.03991 13.8296 6.2337 13.9358C6.42749 14.0421 6.57112 14.221 6.63301 14.4332C6.69489 14.6453 6.66996 14.8734 6.56368 15.0672C6.45741 15.261 6.27851 15.4046 6.06634 15.4665C5.64967 15.5882 5.34967 15.7165 5.15717 15.8332C5.35551 15.9523 5.66884 16.0857 6.10384 16.2098C7.06634 16.4848 8.44384 16.6665 9.99967 16.6665C11.5555 16.6665 12.933 16.4848 13.8955 16.2098C14.3313 16.0857 14.6438 15.9523 14.8422 15.8332C14.6505 15.7165 14.3505 15.5882 13.9338 15.4665C13.725 15.4019 13.5499 15.2578 13.4463 15.0653C13.3427 14.8728 13.3189 14.6473 13.38 14.4375C13.4411 14.2276 13.5823 14.0501 13.773 13.9433C13.9637 13.8365 14.1888 13.8089 14.3997 13.8665C14.9563 14.029 15.4663 14.2373 15.858 14.5048C16.2205 14.754 16.6663 15.1882 16.6663 15.8332C16.6663 16.4857 16.2097 16.9232 15.8413 17.1723C15.443 17.4407 14.9222 17.6498 14.353 17.8123C13.2047 18.1415 11.6663 18.3332 9.99967 18.3332C8.33301 18.3332 6.79467 18.1415 5.64634 17.8123C5.07717 17.6498 4.55634 17.4407 4.15801 17.1723C3.78967 16.9223 3.33301 16.4857 3.33301 15.8332C3.33301 15.1882 3.77884 14.754 4.14134 14.5048C4.53301 14.2373 5.04301 14.029 5.59967 13.8665ZM9.99967 1.6665C11.6573 1.6665 13.247 2.32498 14.4191 3.49709C15.5912 4.66919 16.2497 6.2589 16.2497 7.9165C16.2497 10.0565 15.083 11.7965 13.8747 13.0332C13.3622 13.5565 12.8247 14.0073 12.3305 14.379C11.8355 14.7507 10.7038 15.4473 10.7038 15.4473C10.4892 15.5693 10.2466 15.6335 9.99967 15.6335C9.75279 15.6335 9.51014 15.5693 9.29551 15.4473C8.73365 15.1221 8.19056 14.7654 7.66884 14.379C7.12096 13.9699 6.60477 13.52 6.12467 13.0332C4.91634 11.7965 3.74967 10.0565 3.74967 7.9165C3.74967 6.2589 4.40815 4.66919 5.58026 3.49709C6.75236 2.32498 8.34207 1.6665 9.99967 1.6665ZM9.99967 3.33317C8.7841 3.33317 7.61831 3.81606 6.75877 4.6756C5.89923 5.53514 5.41634 6.70093 5.41634 7.9165C5.41634 9.42984 6.24634 10.7732 7.31634 11.8665C8.12134 12.6898 9.00801 13.3165 9.62217 13.7015L9.99967 13.9298L10.3772 13.7015C10.9905 13.3165 11.878 12.6898 12.683 11.8673C13.753 10.7732 14.583 9.43067 14.583 7.9165C14.583 6.70093 14.1001 5.53514 13.2406 4.6756C12.381 3.81606 11.2153 3.33317 9.99967 3.33317ZM9.99967 5.4165C10.328 5.4165 10.6531 5.48117 10.9564 5.60681C11.2597 5.73244 11.5353 5.91659 11.7674 6.14874C11.9996 6.38088 12.1837 6.65648 12.3094 6.95979C12.435 7.26311 12.4997 7.5882 12.4997 7.9165C12.4997 8.24481 12.435 8.5699 12.3094 8.87321C12.1837 9.17653 11.9996 9.45212 11.7674 9.68427C11.5353 9.91642 11.2597 10.1006 10.9564 10.2262C10.6531 10.3518 10.328 10.4165 9.99967 10.4165C9.33663 10.4165 8.70075 10.1531 8.23191 9.68427C7.76307 9.21543 7.49967 8.57955 7.49967 7.9165C7.49967 7.25346 7.76307 6.61758 8.23191 6.14874C8.70075 5.6799 9.33663 5.4165 9.99967 5.4165ZM9.99967 7.08317C9.77866 7.08317 9.5667 7.17097 9.41042 7.32725C9.25414 7.48353 9.16634 7.69549 9.16634 7.9165C9.16634 8.13752 9.25414 8.34948 9.41042 8.50576C9.5667 8.66204 9.77866 8.74984 9.99967 8.74984C10.2207 8.74984 10.4326 8.66204 10.5889 8.50576C10.7452 8.34948 10.833 8.13752 10.833 7.9165C10.833 7.69549 10.7452 7.48353 10.5889 7.32725C10.4326 7.17097 10.2207 7.08317 9.99967 7.08317Z" fill="#A0A0A0"/>
</g>
</g>
<defs>
<clipPath id="clip0_1148_8927">
<rect width="20" height="20" fill="white"/>
</clipPath>
</defs>
</svg>
