<svg width="14" height="14" viewBox="0 0 14 14" fill="none" xmlns="http://www.w3.org/2000/svg">
<g id="ai-generate-variation-spark--module-application-artificial-intelligence-ai" clip-path="url(#clip0_631_824)">
<g id="ai-generate-variation-spark--module-application-artificial-intelligence-ai_2">
<g id="Group 631">
<path id="Vector" d="M5.28083 8.23096H1.13125C0.861635 8.23096 0.643066 8.44953 0.643066 8.71914V12.8687C0.643066 13.1383 0.861635 13.3569 1.13125 13.3569H5.28083C5.55045 13.3569 5.76902 13.1383 5.76902 12.8687V8.71914C5.76902 8.44953 5.55045 8.23096 5.28083 8.23096Z" stroke="#363636" stroke-linecap="round" stroke-linejoin="round"/>
<path id="Vector_2" d="M12.8688 8.23096H8.71914C8.44952 8.23096 8.23096 8.44953 8.23096 8.71914V12.8687C8.23096 13.1383 8.44952 13.3569 8.71914 13.3569H12.8688C13.1384 13.3569 13.3569 13.1383 13.3569 12.8687V8.71914C13.3569 8.44953 13.1384 8.23096 12.8688 8.23096Z" stroke="#363636" stroke-linecap="round" stroke-linejoin="round"/>
<path id="Vector_3" d="M5.28083 0.643066H1.13125C0.861635 0.643066 0.643066 0.861635 0.643066 1.13125V5.28083C0.643066 5.55045 0.861635 5.76902 1.13125 5.76902H5.28083C5.55045 5.76902 5.76902 5.55045 5.76902 5.28083V1.13125C5.76902 0.861635 5.55045 0.643066 5.28083 0.643066Z" stroke="#363636" stroke-linecap="round" stroke-linejoin="round"/>
<path id="Vector 2136" d="M8.14536 3.58439C7.84477 3.5321 7.84477 3.10059 8.14536 3.0483C9.23433 2.85885 10.1005 2.0294 10.3369 0.949642L10.355 0.866874C10.42 0.569797 10.843 0.567948 10.9106 0.864446L10.9326 0.960901C11.1778 2.03557 12.0441 2.85801 13.1301 3.04693C13.4322 3.09949 13.4322 3.5332 13.1301 3.58576C12.0441 3.77469 11.1778 4.59713 10.9326 5.67179L10.9106 5.76825C10.843 6.06475 10.42 6.0629 10.355 5.76582L10.3369 5.68305C10.1005 4.60329 9.23433 3.77385 8.14536 3.58439Z" stroke="#363636" stroke-linecap="round" stroke-linejoin="round"/>
</g>
</g>
</g>
<defs>
<clipPath id="clip0_631_824">
<rect width="14" height="14" fill="white"/>
</clipPath>
</defs>
</svg>
