<svg width="24" height="24" viewBox="0 0 24 24" fill="none" xmlns="http://www.w3.org/2000/svg">
<g id="kakao-svgrepo-com 1">
<path id="Vector" d="M11.9766 2.25C14.0318 2.25 15.9327 2.64999 17.6792 3.44998C19.4257 4.24997 20.8065 5.3378 21.8213 6.71344C22.8363 8.08903 23.3438 9.58955 23.3438 11.2149C23.3438 12.8403 22.8363 14.3429 21.8213 15.7228C20.8065 17.1027 19.4278 18.1926 17.6855 18.9926C15.9432 19.7925 14.0402 20.1926 11.9766 20.1926C11.3253 20.1926 10.6529 20.146 9.95939 20.0529C6.94842 22.1438 5.34572 23.202 5.15119 23.2274C5.05814 23.2613 4.96931 23.257 4.88475 23.2148C4.85091 23.1893 4.82555 23.1555 4.80863 23.1131C4.7917 23.0708 4.78327 23.0327 4.78327 22.9988V22.9481C4.83403 22.6179 5.21883 21.2423 5.93775 18.8212C4.3054 18.0085 3.00925 16.9313 2.0493 15.5895C1.08935 14.2477 0.609375 12.7895 0.609375 11.2149C0.609375 9.58955 1.11684 8.08903 2.13177 6.71344C3.1467 5.3378 4.52742 4.24997 6.27394 3.44998C8.02045 2.64999 9.92133 2.25 11.9766 2.25Z" fill="black"/>
</g>
</svg>
