<svg width="20" height="20" viewBox="0 0 20 20" fill="none" xmlns="http://www.w3.org/2000/svg">
<g id="Group">
<path id="Vector" d="M17.4999 5.8335C17.7123 5.83373 17.9166 5.91506 18.071 6.06087C18.2255 6.20668 18.3184 6.40596 18.3309 6.61799C18.3433 6.83003 18.2743 7.03881 18.138 7.20169C18.0017 7.36457 17.8083 7.46924 17.5974 7.49433L17.4999 7.50016V15.8335C17.7123 15.8337 17.9166 15.9151 18.071 16.0609C18.2255 16.2067 18.3184 16.406 18.3309 16.618C18.3433 16.83 18.2743 17.0388 18.138 17.2017C18.0017 17.3646 17.8083 17.4692 17.5974 17.4943L17.4999 17.5002H2.49989C2.28749 17.4999 2.0832 17.4186 1.92875 17.2728C1.7743 17.127 1.68136 16.9277 1.66891 16.7157C1.65647 16.5036 1.72545 16.2948 1.86178 16.132C1.9981 15.9691 2.19148 15.8644 2.40239 15.8393L2.49989 15.8335V7.50016C2.28749 7.49993 2.0832 7.4186 1.92875 7.27279C1.7743 7.12698 1.68136 6.9277 1.66891 6.71567C1.65647 6.50363 1.72545 6.29485 1.86178 6.13197C1.9981 5.96909 2.19148 5.86442 2.40239 5.83933L2.49989 5.8335H17.4999ZM15.8332 7.50016H4.16656V15.8335H5.83322V10.0002C5.83322 9.77915 5.92102 9.56719 6.0773 9.41091C6.23358 9.25463 6.44554 9.16683 6.66656 9.16683C6.88757 9.16683 7.09953 9.25463 7.25581 9.41091C7.41209 9.56719 7.49989 9.77915 7.49989 10.0002V15.8335H9.16656V10.0002C9.16656 9.77915 9.25435 9.56719 9.41063 9.41091C9.56692 9.25463 9.77888 9.16683 9.99989 9.16683C10.2209 9.16683 10.4329 9.25463 10.5891 9.41091C10.7454 9.56719 10.8332 9.77915 10.8332 10.0002V15.8335H12.4999V10.0002C12.4999 9.77915 12.5877 9.56719 12.744 9.41091C12.9002 9.25463 13.1122 9.16683 13.3332 9.16683C13.5542 9.16683 13.7662 9.25463 13.9225 9.41091C14.0788 9.56719 14.1666 9.77915 14.1666 10.0002V15.8335H15.8332V7.50016ZM14.9999 3.3335C15.2209 3.3335 15.4329 3.42129 15.5891 3.57757C15.7454 3.73385 15.8332 3.94582 15.8332 4.16683C15.8332 4.38784 15.7454 4.5998 15.5891 4.75609C15.4329 4.91237 15.2209 5.00016 14.9999 5.00016H4.99989C4.77888 5.00016 4.56692 4.91237 4.41063 4.75609C4.25435 4.5998 4.16656 4.38784 4.16656 4.16683C4.16656 3.94582 4.25435 3.73385 4.41063 3.57757C4.56692 3.42129 4.77888 3.3335 4.99989 3.3335H14.9999Z" fill="#363636"/>
</g>
</svg>
