<svg width="18" height="17" viewBox="0 0 18 17" fill="none" xmlns="http://www.w3.org/2000/svg">
<g id="logout-1--arrow-exit-frame-leave-logout-rectangle-right" clip-path="url(#clip0_603_202)">
<g id="logout-1--arrow-exit-frame-leave-logout-rectangle-right_2">
<path id="Vector" d="M11.4001 12.7498V15.1784C11.4001 15.5004 11.2737 15.8093 11.0486 16.037C10.8236 16.2647 10.5184 16.3926 10.2001 16.3926H1.8001C1.48183 16.3926 1.17661 16.2647 0.951569 16.037C0.726526 15.8093 0.600098 15.5004 0.600098 15.1784V1.82122C0.600098 1.49917 0.726526 1.19031 0.951569 0.962589C1.17661 0.734867 1.48183 0.606934 1.8001 0.606934H10.2001C10.5184 0.606934 10.8236 0.734867 11.0486 0.962589C11.2737 1.19031 11.4001 1.49917 11.4001 1.82122V4.24979" stroke="#363636" stroke-width="2" stroke-linecap="round" stroke-linejoin="round"/>
<path id="Vector_2" d="M7.80029 8.5H16.2003" stroke="#363636" stroke-width="2" stroke-linecap="round" stroke-linejoin="round"/>
<path id="Vector_3" d="M13.8003 6.07129L16.2003 8.49986L13.8003 10.9284" stroke="#363636" stroke-width="2" stroke-linecap="round" stroke-linejoin="round"/>
</g>
</g>
<defs>
<clipPath id="clip0_603_202">
<rect width="18" height="17" fill="white"/>
</clipPath>
</defs>
</svg>
